<mxfile host="65bd71144e">
    <diagram id="qp8s6dsegObvCxmOR0ux" name="Page-1">
        <mxGraphModel dx="1317" dy="859" grid="0" gridSize="10" guides="1" tooltips="1" connect="1" arrows="1" fold="1" page="0" pageScale="1" pageWidth="827" pageHeight="1169" math="0" shadow="0">
            <root>
                <mxCell id="0"/>
                <mxCell id="1" parent="0"/>
                <mxCell id="15" style="edgeStyle=none;html=1;exitX=0.5;exitY=1;exitDx=0;exitDy=0;fontSize=18;strokeWidth=3;strokeColor=#F0F0F0;" parent="1" source="2" target="10" edge="1">
                    <mxGeometry relative="1" as="geometry"/>
                </mxCell>
                <mxCell id="16" style="edgeStyle=none;html=1;exitX=1;exitY=0.25;exitDx=0;exitDy=0;entryX=0;entryY=0.5;entryDx=0;entryDy=0;fontSize=18;strokeColor=#F0F0F0;strokeWidth=3;" parent="1" source="2" target="7" edge="1">
                    <mxGeometry relative="1" as="geometry">
                        <Array as="points">
                            <mxPoint x="262" y="-120"/>
                            <mxPoint x="262" y="-155"/>
                        </Array>
                    </mxGeometry>
                </mxCell>
                <mxCell id="17" style="edgeStyle=none;html=1;exitX=1;exitY=0.75;exitDx=0;exitDy=0;entryX=0;entryY=0.5;entryDx=0;entryDy=0;fontSize=18;strokeColor=#F0F0F0;strokeWidth=3;" parent="1" source="2" target="13" edge="1">
                    <mxGeometry relative="1" as="geometry">
                        <Array as="points">
                            <mxPoint x="256" y="-90"/>
                            <mxPoint x="256" y="-45"/>
                        </Array>
                    </mxGeometry>
                </mxCell>
                <mxCell id="18" style="edgeStyle=none;html=1;exitX=0.75;exitY=1;exitDx=0;exitDy=0;entryX=0;entryY=0.5;entryDx=0;entryDy=0;fontSize=18;strokeColor=#F0F0F0;strokeWidth=3;" parent="1" source="2" target="9" edge="1">
                    <mxGeometry relative="1" as="geometry">
                        <Array as="points">
                            <mxPoint x="168" y="58"/>
                        </Array>
                    </mxGeometry>
                </mxCell>
                <mxCell id="20" style="edgeStyle=none;html=1;entryX=1;entryY=0.5;entryDx=0;entryDy=0;fontSize=18;strokeColor=#F0F0F0;strokeWidth=3;" parent="1" target="11" edge="1">
                    <mxGeometry relative="1" as="geometry">
                        <mxPoint x="83" y="-115" as="sourcePoint"/>
                        <Array as="points">
                            <mxPoint x="25" y="-115"/>
                            <mxPoint x="25" y="-155"/>
                        </Array>
                    </mxGeometry>
                </mxCell>
                <mxCell id="21" style="edgeStyle=none;html=1;exitX=0;exitY=0.75;exitDx=0;exitDy=0;entryX=1;entryY=0.5;entryDx=0;entryDy=0;fontSize=18;strokeColor=#F0F0F0;strokeWidth=3;" parent="1" source="2" target="14" edge="1">
                    <mxGeometry relative="1" as="geometry">
                        <Array as="points">
                            <mxPoint x="25" y="-90"/>
                            <mxPoint x="20" y="-45"/>
                        </Array>
                    </mxGeometry>
                </mxCell>
                <mxCell id="22" style="edgeStyle=none;html=1;exitX=0.25;exitY=1;exitDx=0;exitDy=0;entryX=1;entryY=0.5;entryDx=0;entryDy=0;fontSize=18;strokeColor=#F0F0F0;strokeWidth=3;" parent="1" edge="1">
                    <mxGeometry relative="1" as="geometry">
                        <mxPoint x="106" y="-75" as="sourcePoint"/>
                        <mxPoint x="50" y="58" as="targetPoint"/>
                        <Array as="points">
                            <mxPoint x="106" y="58"/>
                        </Array>
                    </mxGeometry>
                </mxCell>
                <mxCell id="23" style="edgeStyle=none;html=1;exitX=0.25;exitY=0;exitDx=0;exitDy=0;entryX=1;entryY=0.5;entryDx=0;entryDy=0;fontSize=18;strokeColor=#F0F0F0;strokeWidth=3;" parent="1" source="2" target="5" edge="1">
                    <mxGeometry relative="1" as="geometry">
                        <Array as="points">
                            <mxPoint x="108" y="-254"/>
                        </Array>
                    </mxGeometry>
                </mxCell>
                <mxCell id="24" style="edgeStyle=none;html=1;exitX=0.5;exitY=0;exitDx=0;exitDy=0;entryX=0.5;entryY=1;entryDx=0;entryDy=0;fontSize=18;strokeColor=#F0F0F0;strokeWidth=3;" parent="1" source="2" target="3" edge="1">
                    <mxGeometry relative="1" as="geometry"/>
                </mxCell>
                <mxCell id="25" style="edgeStyle=none;html=1;exitX=0.75;exitY=0;exitDx=0;exitDy=0;entryX=0;entryY=0.5;entryDx=0;entryDy=0;fontSize=18;strokeColor=#F0F0F0;strokeWidth=3;" parent="1" source="2" target="4" edge="1">
                    <mxGeometry relative="1" as="geometry">
                        <Array as="points">
                            <mxPoint x="168" y="-259"/>
                        </Array>
                    </mxGeometry>
                </mxCell>
                <mxCell id="2" value="&lt;font style=&quot;font-size: 18px&quot; color=&quot;#000000&quot;&gt;Login&lt;/font&gt;" style="rounded=0;whiteSpace=wrap;html=1;fillColor=#FFFFFF;" parent="1" vertex="1">
                    <mxGeometry x="78" y="-135" width="120" height="60" as="geometry"/>
                </mxCell>
                <mxCell id="3" value="Renderizar View" style="ellipse;whiteSpace=wrap;html=1;fontSize=18;fillColor=#6600CC;strokeColor=#472966;strokeWidth=3;" parent="1" vertex="1">
                    <mxGeometry x="78" y="-367" width="120" height="80" as="geometry"/>
                </mxCell>
                <mxCell id="4" value="&lt;font color=&quot;#000000&quot;&gt;Validar senha&lt;/font&gt;" style="ellipse;whiteSpace=wrap;html=1;fontSize=18;fillColor=#FFFF66;strokeColor=#999900;strokeWidth=3;" parent="1" vertex="1">
                    <mxGeometry x="229" y="-299" width="120" height="80" as="geometry"/>
                </mxCell>
                <mxCell id="5" value="&lt;font color=&quot;#000000&quot;&gt;Validar email&lt;/font&gt;" style="ellipse;whiteSpace=wrap;html=1;fontSize=18;strokeColor=#999900;fillColor=#FFFF66;strokeWidth=3;" parent="1" vertex="1">
                    <mxGeometry x="-77" y="-294" width="120" height="80" as="geometry"/>
                </mxCell>
                <mxCell id="7" value="&lt;font color=&quot;#000000&quot;&gt;Tratar resposta da API&lt;/font&gt;" style="ellipse;whiteSpace=wrap;html=1;fontSize=18;fillColor=#99FF99;strokeColor=#009900;strokeWidth=3;" parent="1" vertex="1">
                    <mxGeometry x="289" y="-195" width="120" height="80" as="geometry"/>
                </mxCell>
                <mxCell id="8" value="&lt;font color=&quot;#000000&quot;&gt;Regras denegócio&lt;/font&gt;" style="ellipse;whiteSpace=wrap;html=1;fontSize=18;fillColor=#CCFFFF;strokeColor=#009999;strokeWidth=3;" parent="1" vertex="1">
                    <mxGeometry x="-68" y="18" width="120" height="80" as="geometry"/>
                </mxCell>
                <mxCell id="9" value="Controlar estado" style="ellipse;whiteSpace=wrap;html=1;fontSize=18;fillColor=#6600CC;strokeColor=#472966;strokeWidth=3;" parent="1" vertex="1">
                    <mxGeometry x="229" y="18" width="120" height="80" as="geometry"/>
                </mxCell>
                <mxCell id="10" value="&lt;font color=&quot;#000000&quot;&gt;Comunicar com a API&lt;/font&gt;" style="ellipse;whiteSpace=wrap;html=1;fontSize=18;fillColor=#FF99CC;strokeColor=#99004D;strokeWidth=3;" parent="1" vertex="1">
                    <mxGeometry x="78" y="77" width="120" height="80" as="geometry"/>
                </mxCell>
                <mxCell id="11" value="Gravar cache" style="ellipse;whiteSpace=wrap;html=1;fontSize=18;fillColor=#6600CC;strokeColor=#472966;strokeWidth=3;" parent="1" vertex="1">
                    <mxGeometry x="-133" y="-195" width="120" height="80" as="geometry"/>
                </mxCell>
                <mxCell id="13" value="&lt;font color=&quot;#000000&quot;&gt;Tratar erros&lt;/font&gt;" style="ellipse;whiteSpace=wrap;html=1;fontSize=18;fillColor=#99FF99;strokeColor=#009900;strokeWidth=3;" parent="1" vertex="1">
                    <mxGeometry x="286" y="-85" width="120" height="80" as="geometry"/>
                </mxCell>
                <mxCell id="14" value="&lt;font color=&quot;#ffffff&quot;&gt;Navegação&lt;/font&gt;" style="ellipse;whiteSpace=wrap;html=1;fontSize=18;fillColor=#6666FF;strokeColor=#004C99;strokeWidth=3;" parent="1" vertex="1">
                    <mxGeometry x="-136" y="-85" width="120" height="80" as="geometry"/>
                </mxCell>
                <mxCell id="60" style="edgeStyle=none;html=1;fontColor=#FFFFFF;entryX=1;entryY=0.25;entryDx=0;entryDy=0;" parent="1" target="48" edge="1">
                    <mxGeometry relative="1" as="geometry">
                        <mxPoint x="698" y="610" as="targetPoint"/>
                        <mxPoint x="802" y="616" as="sourcePoint"/>
                        <Array as="points">
                            <mxPoint x="730" y="616"/>
                            <mxPoint x="730" y="592"/>
                        </Array>
                    </mxGeometry>
                </mxCell>
                <mxCell id="61" style="edgeStyle=none;html=1;entryX=1;entryY=0.5;entryDx=0;entryDy=0;fontColor=#FFFFFF;" parent="1" target="42" edge="1">
                    <mxGeometry relative="1" as="geometry">
                        <mxPoint x="804" y="782" as="sourcePoint"/>
                        <Array as="points">
                            <mxPoint x="746" y="782"/>
                            <mxPoint x="746" y="864"/>
                        </Array>
                    </mxGeometry>
                </mxCell>
                <mxCell id="62" style="edgeStyle=none;html=1;entryX=1;entryY=0.25;entryDx=0;entryDy=0;fontColor=#FFFFFF;" parent="1" target="36" edge="1">
                    <mxGeometry relative="1" as="geometry">
                        <mxPoint x="800" y="363" as="sourcePoint"/>
                    </mxGeometry>
                </mxCell>
                <mxCell id="63" style="edgeStyle=none;html=1;exitX=0.5;exitY=1;exitDx=0;exitDy=0;fontColor=#FFFFFF;entryX=0.5;entryY=1;entryDx=0;entryDy=0;" parent="1" source="26" target="28" edge="1">
                    <mxGeometry relative="1" as="geometry">
                        <Array as="points">
                            <mxPoint x="909" y="1024"/>
                            <mxPoint x="-5" y="1024"/>
                        </Array>
                    </mxGeometry>
                </mxCell>
                <mxCell id="65" style="edgeStyle=none;html=1;exitX=0.004;exitY=0.19;exitDx=0;exitDy=0;entryX=1;entryY=0.5;entryDx=0;entryDy=0;fontColor=#FFFFFF;exitPerimeter=0;" parent="1" source="26" target="27" edge="1">
                    <mxGeometry relative="1" as="geometry">
                        <Array as="points">
                            <mxPoint x="242" y="439"/>
                            <mxPoint x="242" y="640"/>
                        </Array>
                    </mxGeometry>
                </mxCell>
                <mxCell id="26" value="" style="rounded=0;whiteSpace=wrap;html=1;fontSize=18;strokeColor=#004C99;strokeWidth=3;fillColor=#6666FF;" parent="1" vertex="1">
                    <mxGeometry x="793" y="317" width="232" height="636" as="geometry"/>
                </mxCell>
                <mxCell id="27" value="" style="rounded=0;whiteSpace=wrap;html=1;fillColor=#99FF99;strokeColor=#009900;strokeWidth=3;fontSize=18;" parent="1" vertex="1">
                    <mxGeometry x="-215" y="547" width="420" height="185" as="geometry"/>
                </mxCell>
                <mxCell id="28" value="" style="rounded=0;whiteSpace=wrap;html=1;fillColor=#CCFFFF;strokeColor=#009999;strokeWidth=3;fontSize=18;" parent="1" vertex="1">
                    <mxGeometry x="-215" y="777" width="420" height="180" as="geometry"/>
                </mxCell>
                <mxCell id="29" value="&lt;font style=&quot;font-size: 18px&quot; color=&quot;#000000&quot;&gt;Authentication&lt;/font&gt;" style="rounded=1;whiteSpace=wrap;html=1;strokeColor=#007FFF;dashed=1;strokeWidth=2;fillColor=#FFFFFF;" parent="1" vertex="1">
                    <mxGeometry x="-80" y="839.5" width="150" height="55" as="geometry"/>
                </mxCell>
                <mxCell id="30" value="Domain" style="text;html=1;strokeColor=none;fillColor=none;align=center;verticalAlign=middle;whiteSpace=wrap;rounded=0;fontSize=18;" parent="1" vertex="1">
                    <mxGeometry x="145" y="747" width="60" height="30" as="geometry"/>
                </mxCell>
                <mxCell id="31" style="edgeStyle=orthogonalEdgeStyle;rounded=0;orthogonalLoop=1;jettySize=auto;html=1;exitX=0.5;exitY=1;exitDx=0;exitDy=0;fontSize=18;strokeWidth=3;fillColor=#d5e8d4;strokeColor=#009900;" parent="1" source="33" target="29" edge="1">
                    <mxGeometry relative="1" as="geometry"/>
                </mxCell>
                <mxCell id="32" style="edgeStyle=orthogonalEdgeStyle;rounded=0;orthogonalLoop=1;jettySize=auto;html=1;exitX=0;exitY=0.5;exitDx=0;exitDy=0;fontSize=18;strokeColor=#009900;strokeWidth=3;" parent="1" source="33" target="35" edge="1">
                    <mxGeometry relative="1" as="geometry"/>
                </mxCell>
                <mxCell id="33" value="&lt;font style=&quot;font-size: 18px&quot; color=&quot;#000000&quot;&gt;RemoteAuthentication&lt;/font&gt;" style="rounded=0;whiteSpace=wrap;html=1;strokeColor=#3B522E;strokeWidth=3;fillColor=#FFFFFF;" parent="1" vertex="1">
                    <mxGeometry x="-22" y="613.25" width="215" height="56.25" as="geometry"/>
                </mxCell>
                <mxCell id="34" value="Data&lt;br&gt;" style="text;html=1;strokeColor=none;fillColor=none;align=center;verticalAlign=middle;whiteSpace=wrap;rounded=0;fontSize=18;" parent="1" vertex="1">
                    <mxGeometry x="145" y="517" width="60" height="30" as="geometry"/>
                </mxCell>
                <mxCell id="35" value="&lt;font style=&quot;font-size: 18px&quot; color=&quot;#000000&quot;&gt;HttpPostClient&lt;/font&gt;" style="rounded=1;whiteSpace=wrap;html=1;strokeColor=#009900;dashed=1;strokeWidth=2;fillColor=#FFFFFF;" parent="1" vertex="1">
                    <mxGeometry x="-199" y="613.25" width="150" height="55" as="geometry"/>
                </mxCell>
                <mxCell id="36" value="" style="rounded=0;whiteSpace=wrap;html=1;fillColor=#FF99CC;strokeColor=#99004D;strokeWidth=3;fontSize=18;" parent="1" vertex="1">
                    <mxGeometry x="-215" y="317" width="420" height="185" as="geometry"/>
                </mxCell>
                <mxCell id="37" style="edgeStyle=orthogonalEdgeStyle;rounded=0;orthogonalLoop=1;jettySize=auto;html=1;exitX=0;exitY=0.5;exitDx=0;exitDy=0;fontSize=18;strokeColor=#B5739D;strokeWidth=3;" parent="1" source="39" target="41" edge="1">
                    <mxGeometry relative="1" as="geometry"/>
                </mxCell>
                <mxCell id="38" style="edgeStyle=orthogonalEdgeStyle;rounded=0;orthogonalLoop=1;jettySize=auto;html=1;exitX=0.5;exitY=1;exitDx=0;exitDy=0;fontSize=18;strokeColor=#B5739D;strokeWidth=3;" parent="1" source="39" target="35" edge="1">
                    <mxGeometry relative="1" as="geometry"/>
                </mxCell>
                <mxCell id="39" value="&lt;font style=&quot;font-size: 18px&quot; color=&quot;#000000&quot;&gt;AxiosHttpClient&lt;/font&gt;" style="rounded=0;whiteSpace=wrap;html=1;strokeColor=#B5739D;strokeWidth=3;fillColor=#FFFFFF;" parent="1" vertex="1">
                    <mxGeometry x="-112.5" y="383.25" width="215" height="53.75" as="geometry"/>
                </mxCell>
                <mxCell id="40" value="Infra" style="text;html=1;strokeColor=none;fillColor=none;align=center;verticalAlign=middle;whiteSpace=wrap;rounded=0;fontSize=18;" parent="1" vertex="1">
                    <mxGeometry x="145" y="287" width="60" height="30" as="geometry"/>
                </mxCell>
                <mxCell id="41" value="&lt;font style=&quot;font-size: 18px&quot; color=&quot;#000000&quot;&gt;Axios&lt;/font&gt;" style="rounded=0;whiteSpace=wrap;html=1;strokeColor=#333333;fillColor=#CCCCCC;" parent="1" vertex="1">
                    <mxGeometry x="-435" y="382" width="150" height="55" as="geometry"/>
                </mxCell>
                <mxCell id="42" value="" style="rounded=0;whiteSpace=wrap;html=1;fillColor=#6600CC;strokeColor=#472966;strokeWidth=3;fontSize=18;" parent="1" vertex="1">
                    <mxGeometry x="277" y="774" width="420" height="180" as="geometry"/>
                </mxCell>
                <mxCell id="43" style="edgeStyle=orthogonalEdgeStyle;rounded=0;orthogonalLoop=1;jettySize=auto;html=1;exitX=0;exitY=0.5;exitDx=0;exitDy=0;fontSize=18;strokeColor=#CC99FF;strokeWidth=3;" parent="1" source="45" target="29" edge="1">
                    <mxGeometry relative="1" as="geometry"/>
                </mxCell>
                <mxCell id="44" style="edgeStyle=orthogonalEdgeStyle;rounded=0;orthogonalLoop=1;jettySize=auto;html=1;exitX=1;exitY=0.5;exitDx=0;exitDy=0;fontSize=18;fontColor=#FFFFFF;strokeColor=#CC99FF;strokeWidth=3;" parent="1" source="45" target="47" edge="1">
                    <mxGeometry relative="1" as="geometry"/>
                </mxCell>
                <mxCell id="45" value="&lt;font style=&quot;font-size: 18px&quot; color=&quot;#000000&quot;&gt;Login&lt;/font&gt;" style="rounded=0;whiteSpace=wrap;html=1;strokeColor=#7F00FF;strokeWidth=2;fillColor=#FFFFFF;" parent="1" vertex="1">
                    <mxGeometry x="295" y="839.5" width="150" height="55" as="geometry"/>
                </mxCell>
                <mxCell id="46" value="Presentation" style="text;html=1;strokeColor=none;fillColor=none;align=center;verticalAlign=middle;whiteSpace=wrap;rounded=0;fontSize=18;" parent="1" vertex="1">
                    <mxGeometry x="615" y="747" width="60" height="30" as="geometry"/>
                </mxCell>
                <mxCell id="47" value="&lt;font style=&quot;font-size: 18px&quot; color=&quot;#000000&quot;&gt;Validation&lt;/font&gt;" style="rounded=1;whiteSpace=wrap;html=1;strokeColor=#7F00FF;dashed=1;strokeWidth=2;fillColor=#FFFFFF;" parent="1" vertex="1">
                    <mxGeometry x="519" y="840.5" width="150" height="55" as="geometry"/>
                </mxCell>
                <mxCell id="48" value="" style="rounded=0;whiteSpace=wrap;html=1;fillColor=#FFFF66;strokeColor=#999900;strokeWidth=3;fontSize=18;" parent="1" vertex="1">
                    <mxGeometry x="275" y="547" width="420" height="180" as="geometry"/>
                </mxCell>
                <mxCell id="49" style="edgeStyle=orthogonalEdgeStyle;rounded=0;orthogonalLoop=1;jettySize=auto;html=1;exitX=0.5;exitY=1;exitDx=0;exitDy=0;entryX=0.25;entryY=0;entryDx=0;entryDy=0;fontSize=18;fontColor=#FFFFFF;strokeColor=#CCCC00;strokeWidth=3;fillColor=#fff2cc;" parent="1" source="50" target="47" edge="1">
                    <mxGeometry relative="1" as="geometry">
                        <Array as="points">
                            <mxPoint x="385" y="797"/>
                            <mxPoint x="557" y="797"/>
                        </Array>
                    </mxGeometry>
                </mxCell>
                <mxCell id="50" value="&lt;font style=&quot;font-size: 18px&quot; color=&quot;#000000&quot;&gt;RequiredFieldValidation&lt;/font&gt;" style="rounded=0;whiteSpace=wrap;html=1;strokeColor=#CCCC00;strokeWidth=2;fillColor=#FFFFFF;" parent="1" vertex="1">
                    <mxGeometry x="280" y="617" width="210" height="60" as="geometry"/>
                </mxCell>
                <mxCell id="51" value="Validation" style="text;html=1;strokeColor=none;fillColor=none;align=center;verticalAlign=middle;whiteSpace=wrap;rounded=0;fontSize=18;" parent="1" vertex="1">
                    <mxGeometry x="615" y="522" width="60" height="30" as="geometry"/>
                </mxCell>
                <mxCell id="52" style="edgeStyle=orthogonalEdgeStyle;rounded=0;orthogonalLoop=1;jettySize=auto;html=1;fontSize=18;fontColor=#FFFFFF;strokeColor=#CCCC00;strokeWidth=3;fillColor=#fff2cc;" parent="1" source="53" target="47" edge="1">
                    <mxGeometry relative="1" as="geometry">
                        <Array as="points">
                            <mxPoint x="525" y="767"/>
                            <mxPoint x="594" y="767"/>
                        </Array>
                    </mxGeometry>
                </mxCell>
                <mxCell id="53" value="&lt;font style=&quot;font-size: 18px&quot; color=&quot;#000000&quot;&gt;EmailField Validation&lt;/font&gt;" style="rounded=0;whiteSpace=wrap;html=1;strokeColor=#CCCC00;strokeWidth=2;fillColor=#FFFFFF;" parent="1" vertex="1">
                    <mxGeometry x="499" y="617" width="190" height="60" as="geometry"/>
                </mxCell>
                <mxCell id="54" value="Main" style="text;html=1;strokeColor=none;fillColor=none;align=center;verticalAlign=middle;whiteSpace=wrap;rounded=0;fontSize=18;fontColor=#FFFFFF;" parent="1" vertex="1">
                    <mxGeometry x="966" y="238" width="60" height="30" as="geometry"/>
                </mxCell>
                <mxCell id="55" value="LoginFactory" style="rounded=0;whiteSpace=wrap;html=1;fontSize=18;fontColor=#000000;strokeColor=#004C99;strokeWidth=4;fillColor=#FFFFFF;" parent="1" vertex="1">
                    <mxGeometry x="831" y="352" width="150" height="60" as="geometry"/>
                </mxCell>
                <mxCell id="56" value="Index" style="rounded=0;whiteSpace=wrap;html=1;fontSize=18;fontColor=#000000;strokeColor=#004C99;strokeWidth=4;fillColor=#FFFFFF;" parent="1" vertex="1">
                    <mxGeometry x="831" y="442" width="150" height="60" as="geometry"/>
                </mxCell>
                <mxCell id="57" value="DI" style="rounded=0;whiteSpace=wrap;html=1;fontSize=18;fontColor=#000000;strokeColor=#004C99;strokeWidth=4;fillColor=#FFFFFF;" parent="1" vertex="1">
                    <mxGeometry x="831" y="532" width="150" height="60" as="geometry"/>
                </mxCell>
            </root>
        </mxGraphModel>
    </diagram>
</mxfile>
